<svg xmlns="http://www.w3.org/2000/svg" viewBox="0 0 512 512" class="logo">
  <path d="M256 31c123 0 223.5 100 223.5 224.8 0 36.2-8.5 70.3-23.5 100.5-23.4 45.4-57.3 60.8-66.2 55 35.7-35.5 57.2-91.5 57.2-141.6 0-50.3-22-95.4-57.2-130.3-.8-33.5-20-50.3-43-57 1 12 9.5 15.7-5 22C315.5 91.2 286 84 257 84h-.5c-40.6 0-81.4 14-114.3 39-12.7-8.6-3.7-13-6-19.7-20.6 6.3-41.5 35.8-30 55.7-25 33-40 75-40 116.7C66 326 88 375.8 123 411c12.7 12.4 27 23 42.5 31.7 95.6 54.5 223 54.8 294-31.7 33-43.2 52.7-97 52.7-155.2C512 115 397.6 0 256 0 116.2 0 3.2 111.8 0 249.7c1 84.7 24.8 126.8 51.2 172.8 5.3 11 5.6 19.6-10.5 15.3-12.2-3.5-20.2-7.7-20.2-7.7s2.2 4.3 13.6 15.4c11.8 9 19.3 17.4 22.8 22.7 6.8 10.3 8.7 18.8 4.6 28.4L51.8 512s16.8-7.7 26.8-13c30.7-16.2 43-42.7 32.5-70.4l-5.6-15-9 12.5c-9.8 9.7-21.8 4-29.5-6-29.7-42-42.7-133.7-31.6-201.4C53 111.6 145.4 31 256 31zM291 182.4h2c-10.2 5-17.2 15.2-17.2 27.3 0 17 13.8 31.3 31 31.3 14.7 0 27.2-10.4 30.2-24.3 1.5 4.5 2.2 8.8 2.2 13.7 0 26.6-21.6 48-48.2 48-26.5 0-48-21.4-48-48 0-26.5 21.4-48 48-48zM176.8 192h3.6c-6.4 4-10.6 11-10.6 19.2 0 12.3 9.4 22.2 21.8 22.2 8.6 0 16-5.4 19.8-12.6.3 2.2 1 4.7 1 7 0 19.6-16 35.5-35.5 35.5-19.8 0-36-16.2-36-36 0-19.3 16.2-35.3 35.8-35.3zm204.4 19.7c30.4 72.5.2 156.5-69.3 189.5-71.8 34-158.2 1.3-193.4-72.8-7.7-16-12.4-33.4-14.2-50l3 6.2c35.6 74 121.8 106.8 193.3 72.7 56-26.6 86.6-85.4 80.5-145.6z"/>
</svg>
