<svg xmlns="http://www.w3.org/2000/svg" viewBox="0 0 512 512" class="logo">
  <path d="M257.1-.13c-66.2-.26-132.23 26.56-179.66 72.6C28.48 120 0 187.67 0 256c0 67.2 27.67 133.6 75.2 180.8C122.22 484.5 188.8 512 256 512c67.2 0 133.58-27.67 180.78-75.2C484.46 389.78 512 323.2 512 256c0-65.6-26.74-131.2-72.5-178.56C393.58 30.4 329.1 1.92 263.5 0c-2.13-.07-4.27-.12-6.4-.13zm-.16 34.04l.2.2c59.5 0 117.73 24.3 159.33 65.9 41.6 41.6 65.6 98.9 65.6 156.8 0 58.4-24 115.5-65.6 157.1-41.6 41.6-99.85 66.1-159.53 66.1-59.68 0-118.4-24.33-160-66.1C55.34 372.3 32 315.2 32 257.14 32 198.88 55.34 141.6 96.94 100c41.6-41.6 100.32-66.1 160-66.1zm90.03 31.32c-.18 8.28-.04 16.74-.2 24.56-27.66-15.35-59.1-23.7-90.27-23.7l-.16.17c-48.48 0-97.27 20-132.15 54.88l-.36.46c-2.08 2.08-4.1 4.24-6.1 6.43-1.46-5.32-2.84-10.67-4.9-16.44l-6.28 7.5c-13.66 15.7-22.8 41.8-23.44 62.78l.32-.07c-9.93 23.26-15.4 48.46-15.4 73.57 1.48 47.6 15.9 85.53 38.27 114.16 5.64 7.7 11.8 14.96 18.48 21.66 35.2 34.87 83.84 55.2 132.16 55.2 48.32 0 97.28-20.15 132-54.87 35.2-34.88 55.69-84.8 55.69-134.4 0-30.7-7.9-61.36-22-88.47-.48-.9-.95-1.82-1.44-2.72-6.9-13-15.2-25.15-24.8-36.06-4.08-17.9-15.35-36.16-32.43-50.88-9-7.8-16.5-13.78-17-13.78zm-50.7 98.3h2c-10.2 5-17.18 15.22-17.18 27.32 0 17 13.8 31.28 31 31.28 14.7 0 27.18-10.38 30.18-24.28 1.5 4.5 2.22 8.8 2.22 13.7 0 26.6-21.62 48-48.22 48-26.5 0-48-21.4-48-48 0-26.5 21.4-48 48-48zM182 173.13h3.7c-6.4 4-10.6 11.02-10.6 19.22 0 12.3 9.37 22.2 21.77 22.2 8.6 0 16.02-5.4 19.82-12.6.3 2.2 1 4.7 1 7 0 19.6-16 35.5-35.5 35.5-19.8 0-36-16.2-36-36 0-19.3 16.2-35.31 35.8-35.31zm204.38 19.72h.12c30.4 72.5.2 156.5-69.3 189.5-71.8 34-158.22 1.3-193.42-72.8-7.7-16-12.4-33.4-14.2-50l3 6.2c35.6 74 121.8 106.8 193.3 72.7 56-26.6 86.6-85.4 80.5-145.6z"/>
</svg>
