<svg xmlns="http://www.w3.org/2000/svg" width="512" height="512" version="1">
  <path fill="#E9E9E9" d="M411 0c-.5 18 .7 37-3 48l-7 11c-25-11.7-53-18.4-82.7-18.4-48.5 0-92.7 18-126.7 47.3l-.8-1.6c-8-14.4-9-26-14-40l-6.3 7.5c-16 18.3-25.8 51-23 73 .4 3.2 1.5 6.8 3 10.6-16.4 28.5-25.8 61.6-25.8 97 0 107 86.6 194 193.6 194 16 0 31.5-2 46.3-5.6l4.8 5c14.4 16 9.6 34.8-11.4 44.8-10 5-41.4 9.7-54.4 8.5-23-2.4-66.6-20-76.6-27.6-31-17.6-66.2-41.4-103-52.6-21.7-6-46-7.5-61.3-4.5C49 400 45 396.3 43 381l.8-17.3-15.6 9.5C-.4 390.7-7.8 423 8.6 458.5c5.2 11.7 15 30.3 15 30.3l2-20.5c3-11.5 10.6-17.8 23.6-22.2 6.8-2.3 19.3-4.5 36-4.7 17.8-2 23-4.4 23-4.4s-10-2-23.3-7.3c-21-6.5-6.5-16 4-18.3 13-3 32 2 55 14.7 39.8 23 76 51.6 119 69.6 21.5 8.4 29 11.5 61.3 14.8 31.3 3.2 40.6.7 56.6-2.8 33-7.6 57.6-30.2 60-55 1-12.7-5.7-34.3-14.5-46.7-1.7-2.5-3.4-4.8-5.4-6.8 54.6-34.5 91-95.2 91-164.5 0-52-20.6-99.4-54-134.4 11.2-26.3-1-61.5-30-86.5C419 6 411.3 0 411 0zm-49.6 135.4h2.2c-11.5 5.8-19.4 17.6-19.4 31.3 0 19.4 15.7 35 35 35 16.8 0 30.8-11.7 34.2-27.4 1.5 5 2.3 10 2.3 15.5 0 30-24.3 54.4-54.3 54.4-30 0-54.2-24.3-54.2-54.3 0-30 24.2-54.4 54.2-54.4zm-129.2 11l4 .3c-7.3 4.4-12 12.3-12 21.4 0 14 11 25 25 25 9.7 0 18.2-5.6 22.3-13.8.4 2.5.7 5 .7 7.6 0 22-18 40-40 40-22.2 0-40-18-40-40.2 0-22 17.8-40 40-40zM463 168.8c34.3 82 .5 176.8-78 214-81 38.4-178.6 1.5-218.3-82.2C158 282.3 153 263 151 244.3l3 7C194 335 291.6 372 372.4 333.5c63-30 97.5-96.8 90.6-164.8z"/>
</svg>
