<svg xmlns="http://www.w3.org/2000/svg" width="512" height="512" version="1">
  <path fill="#1b1c1d" d="M256 0C114.6 0 0 114.6 0 256c0 34.5 7 67.5 19.3 97.6 3-3 6.3-6 10.3-8.4l12.5-7.5-.5 13.8c1.6 12.3 4.8 15.2 15.8 12.3 12.2-2.4 31.7-1.2 49 3.6 29.5 9 57.7 28 82.5 42.2 8 6 43 20.2 61.4 22 10.4 1 35.5-2.7 43.6-6.7 16.8-8 20.6-23.2 9-36l-3.7-4c-11.8 3-24.2 4.5-37 4.5-85.7 0-155-69.7-155-155.4 0-28.3 7.4-54.8 20.6-77.6-1.2-3-2-6-2.4-8.5-2.3-17.7 5.6-44 18.4-58.6l5-6c4 11.3 4.8 20.5 11.2 32l.7 1.3C187.7 93.3 223 79 262 79c23.8 0 46.2 5.2 66.2 14.6l5.6-8.8c3-8.8 2-24 2.4-38.5.3 0 6.4 5 13.6 11 23.2 20 33 48.3 24 69.4 26.7 28 43.2 66 43.2 107.6 0 55.6-29 104.2-72.8 131.8 1.6 1.7 3 3.5 4.3 5.5 7 10 12.4 27.3 11.6 37.4-1.8 19.8-21.5 38-48 44-12.8 2.8-20.2 4.8-45.3 2.2-26-2.6-32-5-49-11.8C183 429 154 406 122.2 387.6c-18.4-10-33.7-14.2-44-11.8-8.5 2-20 9.5-3.3 14.7 10.7 4.3 18.7 6 18.7 6s-4.2 1.8-18.5 3.4c-13 0-23 1.8-28.4 3.6C93 469.2 169.6 512 256 512c141.4 0 256-114.6 256-256S397.4 0 256 0zm40.5 154.8c-24 0-43.4 19.6-43.4 43.6s19.5 43.5 43.5 43.5 43.5-19.6 43.5-43.6c0-4.4-.7-8.5-2-12.5-2.6 12.5-13.8 22-27.3 22-15.4 0-28-12.6-28-28 0-11 6.3-20.6 15.6-25.2h-1.8zM193 163.6v.2c-17.8 0-32 14.5-32 32 0 18 14.2 32.3 32 32.3 17.6 0 32-14.3 32-32 0-2-.2-4-.5-6-3.3 6.5-10 11-18 11-11 0-20-8.8-20-20 0-7.3 4-13.6 9.7-17.2l-3.2-.2zm185 18c5.4 54.4-22.2 107.8-72.7 132-64.7 30.7-143 1-175-66L128 242c1.6 15 5.6 30.5 12.5 45 31.8 67.2 110 96.7 175 66 62.8-30 89.8-105.8 62.4-171.5z"/>
</svg>
